/* XPM */
static char *lightbulb[] = {
/* width height ncolors chars_per_pixel */
"32 32 8 1",
/* colors */
"` c black",
"a c grey",
"b c red",
"c c tomato",
"d c None",
"e c yellow",
"f c slate grey",
"g c lemon chiffon",
/* pixels */
"ddddddddddddd``````ddddddddddddd",
"ddddddddddd``dddddd``ddddddddddd",
"ddddddddd``dddddddddd``ddddddddd",
"dddddddd`dddddddddddddd`dddddddd",
"dddddddd`dddgdgdgdgdddd`dddddddd",
"ddddddd`dddgdgdgdgdgdgdd`ddddddd",
"ddddddd`ddgdgdgdgdgdgdgd`ddddddd",
"dddddd`ddgdgdgggggggdgdgd`dddddd",
"dddddd`dgdgdgggggggggdgdd`dddddd",
"dddddd`ddgdgggggggggggdgd`dddddd",
"dddddd`dgdggbgcgcgcbgdgdd`dddddd",
"dddddd`ddgdg`gggggg`ggdgd`dddddd",
"ddddddd`ddgg`gggggg`gdgd`ddddddd",
"ddddddd`dgdgg`gggg`gdgdd`ddddddd",
"dddddddd`dgdgg`gg`gdgdd`dddddddd",
"dddddddd`ddgdg`gg`dgddd`dddddddd",
"ddddddddd`ddga`gg`agdd`ddddddddd",
"ddddddddd`dddaaaaaaddd`ddddddddd",
"dddddddddd`dddaffaddd`dddddddddd",
"dddddddddd`dddaffaddd`dddddddddd",
"ddddddddddd`ddaffadd`ddddddddddd",
"ddddddddddd`ddaffadd`ddddddddddd",
"dddddddddddd`daffad`dddddddddddd",
"dddddddddddd````````dddddddddddd",
"dddddddddddd`eeeeee`dddddddddddd",
"ddddddddddd`eeeeeeee`ddddddddddd",
"dddddddddddd````````dddddddddddd",
"ddddddddddd`eeeeeeee`ddddddddddd",
"dddddddddddd````````dddddddddddd",
"ddddddddddd`eeeeeeee`ddddddddddd",
"dddddddddddd``eeee``dddddddddddd",
"dddddddddddddd````dddddddddddddd"
};
