/* XPM */
static char * cat1 [] = {
"32 32 4 1",
" 	c #FFFFFFFFFFFF",
".	c #000000000000",
"X	c #A5A52A2A2A2A",
"o	c #FFFF00000000",
"                                ",
"                                ",
"                                ",
"                                ",
"                                ",
"                                ",
"                                ",
"                                ",
"                                ",
"                   .      .     ",
"      XXXXXXXXXX   ..    ..     ",
"    XXX        XXXX. .... .     ",
"   X              .        .    ",
"  X               .  .  .  .    ",
"  X               .        .    ",
" XX               .   ..   .    ",
" XX               . o    o .    ",
" XX               .  oooo  .    ",
" X X               .      .     ",
" X  XXXXXXXXXXXXXXXX......      ",
" XX                             ",
"  XX                            ",
"   XX         XXX               ",
"    XXXXXXXXXX                  ",
"                                ",
"                                ",
"                                ",
"                                ",
"                                ",
"                                ",
"                                ",
"                                "};
